<svg xmlns="http://www.w3.org/2000/svg" viewBox="0 0 293 146.25"><defs><style>.cls-1,.cls-2{fill:#17439a;}.cls-1{fill-rule:evenodd;}</style></defs><title>资源 1</title><g id="图层_2" data-name="图层 2"><g id="图层_1-2" data-name="图层 1"><path class="cls-1" d="M186.12,44.84h92c-.53,9.85-3.88,17.28-8.15,24.3-4.83,7.93-11.67,12.49-21.43,12.55-20.39.13-40.78.7-61.18,1-9.81.13-19.63,0-29.44,0,.23,9.37,2.85,12.15,11.08,12.15q50.21,0,100.42,0c9,0,14.57-4.72,15.91-13.55S288,63.66,289.2,54.81c1.21-8.67,2.38-17.34,3.61-26.28-2.08-.21-3-.38-3.85-.38q-42.28-.16-84.58-.28C195.26,27.86,189.05,33.41,186.12,44.84Z"/><path class="cls-1" d="M141.74,51.85c-3.44-.17-5.46-.35-7.48-.36q-55.39-.15-110.79-.27c-19.51,0-19.9,0-20.9,19.22C2.21,77.41-4,86.33,4.29,91.2c6.13,3.6,14.48,3.45,21.85,4.89a10.57,10.57,0,0,0,3-.41c1.5-10.79,2.82-21.44,4.62-32,.31-1.79,2.68-4.58,4.13-4.6,18.12-.26,36.26-.51,54.35.14,10,.35,15,6.94,14.79,16.94-.12,5.27-.59,10.54-.49,15.81,0,1.75.83,4.41,2.1,5.07,7.5,3.93,26.92-4.19,28.62-12.46C139.38,74.09,140.22,63.34,141.74,51.85Z"/><path class="cls-1" d="M5.78,46.42c9.53,0,17.74,0,26,0q52.63.11,105.27.23c3.09,0,6,.26,6.43-4.08.94-10,2.28-20,2.88-30.09.12-2.08-1.86-5.73-3.58-6.23C135,4,127,2.66,118.79.91c-1.72,12.34-3.07,23-4.83,33.56-.28,1.69-2.35,4.4-3.62,4.42-18.8.17-37.62.48-56.39-.38-9.13-.41-13.7-7.19-13.56-16.61.08-5.27.41-10.55.22-15.81-.06-1.75-.88-4.32-2.18-5-7.1-4-26.24,4.17-27.85,12.25C8.49,23.8,7.45,34.51,5.78,46.42Z"/><path class="cls-1" d="M160.82,45.76c10,3,7.34,20.16,14.77-6.34,6.13-16.92,14.15-22.8,32.37-23,25.92-.21,51.84-.14,77.76-.19H293c-1.17-9.72-3.5-12.63-9.71-12.64q-51.62,0-103.22,0c-8.07,0-13.73,4.93-15,13.12C163.51,26.25,162.26,35.77,160.82,45.76Z"/><path class="cls-1" d="M186.12,44.84c2.93-11.43,9.14-17,18.26-17q42.29,0,84.58.28c.88,0,1.77.17,3.85.38-1.23,8.94-2.4,17.61-3.61,26.28-1.25,8.85-2.49,17.69-3.83,26.52s-6.89,13.55-15.91,13.55q-50.22,0-100.42,0c-8.23,0-10.85-2.78-11.08-12.15,9.81,0,19.63.11,29.44,0,20.4-.28,40.79-.85,61.18-1,9.76-.06,16.6-4.62,21.43-12.55,4.27-7,7.62-14.45,8.15-24.3Z"/><path class="cls-1" d="M141.74,51.85c-1.52,11.49-2.36,22.24-4.52,32.71C135.52,92.83,116.1,101,108.6,97c-1.27-.66-2.07-3.32-2.1-5.07-.1-5.27.37-10.54.49-15.81.22-10-4.82-16.59-14.79-16.94-18.09-.65-36.23-.4-54.35-.14-1.45,0-3.82,2.81-4.13,4.6-1.8,10.58-3.12,21.23-4.62,32a10.57,10.57,0,0,1-3,.41C18.77,94.65,10.42,94.8,4.29,91.2-4,86.33,2.21,77.41,2.57,70.44c1-19.25,1.39-19.26,20.9-19.22q55.4.11,110.79.27C136.28,51.5,138.3,51.68,141.74,51.85Z"/><path class="cls-1" d="M5.78,46.42C7.45,34.51,8.49,23.8,10.58,13.3,12.19,5.22,31.33-2.95,38.43,1.05c1.3.72,2.12,3.29,2.18,5,.19,5.26-.14,10.54-.22,15.81C40.25,31.32,44.82,38.1,54,38.51c18.77.86,37.59.55,56.39.38,1.27,0,3.34-2.73,3.62-4.42,1.76-10.58,3.11-21.22,4.83-33.56C127,2.66,135,4,142.73,6.25c1.72.5,3.7,4.15,3.58,6.23-.6,10.05-1.94,20.06-2.88,30.09-.4,4.34-3.34,4.08-6.43,4.08q-52.64-.15-105.27-.23C23.52,46.4,15.31,46.42,5.78,46.42Z"/><path class="cls-1" d="M283.29,3.64q-51.62,0-103.22,0c-8.07,0-13.73,4.93-15,13.12-1.52,9.48-2.77,19-4.21,29-.38,2.1-.65,4-.86,5.8a4.73,4.73,0,0,0-.39,1.19c-1,5.55-1.39,11.2-2.13,17.58,3.21,0,5.66,0,8.11,0,25.63.16,51.26.12,76.89.59,11.78.22,18.52-4.19,22.34-17.1-2.63,0-4.67,0-6.71,0q-39.13-.42-78.26-1c-3.9-.05-6.45-.12-8.07-.21a121,121,0,0,0,3.85-13.18c6.13-16.92,14.15-22.8,32.37-23,25.92-.21,51.84-.14,77.76-.19H293C291.83,6.56,289.5,3.65,283.29,3.64Z"/><path class="cls-1" d="M118.24,106.76h11.08c-2.13,11.94-4.07,23.55-6.32,35.09-1,5-1.26,5-11.35,3.66C113.83,132.66,116,119.85,118.24,106.76Z"/><path class="cls-2" d="M19.49,122.11h3.17v24.14h-3.3V128.17l.17,1.07-6,13.66H11.23L5.28,129.57l.17-1.4v18.08H2.15V122.11H5.32l7.08,15.94Z"/><path class="cls-2" d="M34.88,122.11h2.89l8.9,24.14H43l-6.69-19.47-6.69,19.47H26Zm-4.79,15.63h12.7V141H30.09Z"/><path class="cls-2" d="M50.32,122.11h3.39v24.14H50.32ZM53,135.66l10.66-13.55H67.8L52.48,140.74Zm4-2.29,2.67-2.47,9.15,15.35H64.67Z"/><path class="cls-2" d="M72.47,122.11h3.39v24.14H72.47Zm1.64,0H88v3.22H74.11Zm0,10.55h12v3.22h-12Zm0,10.37H88v3.22H74.11Z"/><path class="cls-2" d="M176.86,122.11h3.39v24.14h-3.39Zm1.7,20.92h13.81v3.22H178.56Z"/><path class="cls-2" d="M200.76,146.25h-3.39V122.11h3.39Z"/><path class="cls-2" d="M205.27,122.11H209l5.8,18.93,5.79-18.93h3.69l-7.87,24.14h-3.22Z"/><path class="cls-2" d="M228.73,122.11h3.39v24.14h-3.39Zm1.65,0h13.86v3.22H230.38Zm0,10.55h12v3.22h-12Zm0,10.37h13.86v3.22H230.38Z"/><path class="cls-2" d="M250.07,122.11h3.39v24.14h-3.39Zm1.7,20.92h13.81v3.22H251.77Z"/><path class="cls-2" d="M277.84,136.44v9.81h-3.39v-9.81l-7.35-14.33h3.77L276.15,133l5.27-10.89h3.77Z"/><path class="cls-1" d="M159.55,106.85c.49,4.45,1,8.22-4.93,8.78-1.05.1-2.28,3.07-2.67,4.87-1.23,5.81-2.14,11.68-3.1,17.53-1.45,8.95-1.46,9-12.17,7.49,1.6-9.71,3.2-19.44,4.82-29.31l-5.54-2,1.29-7.31Z"/></g></g></svg>